<svg width="40" height="40" viewBox="0 0 40 40" fill="none" xmlns="http://www.w3.org/2000/svg">
    <path fill-rule="evenodd" clip-rule="evenodd" d="M23.5355 18.7219H28.1486C28.848 18.7219 29.3976 18.1436 29.3976 17.4463C29.3976 16.7319 28.848 16.1706 28.1486 16.1706H23.5355C22.836 16.1706 22.2865 16.7319 22.2865 17.4463C22.2865 18.1436 22.836 18.7219 23.5355 18.7219ZM33.6277 9.87915C34.6435 9.87915 35.3097 10.2363 35.9758 11.0187C36.642 11.8011 36.7586 12.9237 36.6087 13.9425L35.0266 25.1C34.7268 27.2448 32.9282 28.8249 30.8132 28.8249H12.644C10.4291 28.8249 8.59718 27.0917 8.41398 24.8466L6.88185 6.30567L4.36714 5.86345C3.70099 5.74439 3.23469 5.08106 3.35126 4.40072C3.46784 3.70507 4.11733 3.24414 4.80013 3.3479L8.77204 3.9585C9.33826 4.06225 9.75461 4.53679 9.80457 5.11508L10.121 8.92498C10.1709 9.47095 10.6039 9.87915 11.1369 9.87915H33.6277ZM12.3772 31.5131C10.9783 31.5131 9.84585 32.6697 9.84585 34.0984C9.84585 35.5101 10.9783 36.6667 12.3772 36.6667C13.7595 36.6667 14.8919 35.5101 14.8919 34.0984C14.8919 32.6697 13.7595 31.5131 12.3772 31.5131ZM31.1126 31.5131C29.7137 31.5131 28.5812 32.6697 28.5812 34.0984C28.5812 35.5101 29.7137 36.6667 31.1126 36.6667C32.4948 36.6667 33.6273 35.5101 33.6273 34.0984C33.6273 32.6697 32.4948 31.5131 31.1126 31.5131Z" fill="white"/>
</svg>
