<svg width="40" height="40" viewBox="0 0 40 40" fill="none" xmlns="http://www.w3.org/2000/svg">
    <path fill-rule="evenodd" clip-rule="evenodd" d="M7.56659 3.33333H13.1999C15.5499 3.33333 17.4333 5.25 17.4333 7.60167V13.2833C17.4333 15.65 15.5499 17.55 13.1999 17.55H7.56659C5.23325 17.55 3.33325 15.65 3.33325 13.2833V7.60167C3.33325 5.25 5.23325 3.33333 7.56659 3.33333ZM7.56659 22.4495H13.1999C15.5499 22.4495 17.4333 24.3512 17.4333 26.7178V32.3995C17.4333 34.7495 15.5499 36.6662 13.1999 36.6662H7.56659C5.23325 36.6662 3.33325 34.7495 3.33325 32.3995V26.7178C3.33325 24.3512 5.23325 22.4495 7.56659 22.4495ZM32.4334 3.33333H26.8C24.45 3.33333 22.5667 5.25 22.5667 7.60167V13.2833C22.5667 15.65 24.45 17.55 26.8 17.55H32.4334C34.7667 17.55 36.6667 15.65 36.6667 13.2833V7.60167C36.6667 5.25 34.7667 3.33333 32.4334 3.33333ZM26.8 22.4495H32.4334C34.7667 22.4495 36.6667 24.3512 36.6667 26.7178V32.3995C36.6667 34.7495 34.7667 36.6662 32.4334 36.6662H26.8C24.45 36.6662 22.5667 34.7495 22.5667 32.3995V26.7178C22.5667 24.3512 24.45 22.4495 26.8 22.4495Z" fill="white"/>
</svg>
