<svg width="15" height="11" viewBox="0 0 15 11" fill="none" xmlns="http://www.w3.org/2000/svg">
    <path d="M9.95815 5.63505C9.95815 6.23449 9.72002 6.80938 9.29615 7.23325C8.87228 7.65712 8.29739 7.89525 7.69795 7.89525C7.0985 7.89525 6.52361 7.65712 6.09974 7.23325C5.67587 6.80938 5.43774 6.23449 5.43774 5.63505C5.43774 5.03561 5.67587 4.46072 6.09974 4.03685C6.52361 3.61298 7.0985 3.37485 7.69795 3.37485C8.29739 3.37485 8.87228 3.61298 9.29615 4.03685C9.72002 4.46072 9.95815 5.03561 9.95815 5.63505Z" fill="#9796A1" fill-opacity="0.6"/>
    <path fill-rule="evenodd" clip-rule="evenodd" d="M0.465332 5.63501C0.465332 5.63501 3.17757 0.662561 7.69798 0.662561C12.2184 0.662561 14.9306 5.63501 14.9306 5.63501C14.9306 5.63501 12.2184 10.6075 7.69798 10.6075C3.17757 10.6075 0.465332 5.63501 0.465332 5.63501ZM7.69798 8.79929C8.5372 8.79929 9.34205 8.46591 9.93546 7.87249C10.5289 7.27907 10.8623 6.47423 10.8623 5.63501C10.8623 4.79579 10.5289 3.99094 9.93546 3.39752C9.34205 2.8041 8.5372 2.47072 7.69798 2.47072C6.85876 2.47072 6.05391 2.8041 5.46049 3.39752C4.86707 3.99094 4.5337 4.79579 4.5337 5.63501C4.5337 6.47423 4.86707 7.27907 5.46049 7.87249C6.05391 8.46591 6.85876 8.79929 7.69798 8.79929Z" fill="#9796A1" fill-opacity="0.6"/>
    <path fill-rule="evenodd" clip-rule="evenodd" d="M0.465332 5.63501C0.465332 5.63501 3.17757 0.662561 7.69798 0.662561C12.2184 0.662561 14.9306 5.63501 14.9306 5.63501C14.9306 5.63501 12.2184 10.6075 7.69798 10.6075C3.17757 10.6075 0.465332 5.63501 0.465332 5.63501ZM7.69798 8.79929C8.5372 8.79929 9.34205 8.46591 9.93546 7.87249C10.5289 7.27907 10.8623 6.47423 10.8623 5.63501C10.8623 4.79579 10.5289 3.99094 9.93546 3.39752C9.34205 2.8041 8.5372 2.47072 7.69798 2.47072C6.85876 2.47072 6.05391 2.8041 5.46049 3.39752C4.86707 3.99094 4.5337 4.79579 4.5337 5.63501C4.5337 6.47423 4.86707 7.27907 5.46049 7.87249C6.05391 8.46591 6.85876 8.79929 7.69798 8.79929Z" fill="#9796A1" fill-opacity="0.6"/>
</svg>
