<svg width="40" height="40" viewBox="0 0 40 40" fill="none" xmlns="http://www.w3.org/2000/svg">
    <path d="M15.2246 34.6222V29.526C15.2246 28.2251 16.2869 27.1705 17.5974 27.1705H22.3876C23.0169 27.1705 23.6205 27.4187 24.0654 27.8604C24.5104 28.3022 24.7604 28.9013 24.7604 29.526V34.6222C24.7564 35.1631 24.9701 35.6831 25.3539 36.067C25.7378 36.4508 26.26 36.6667 26.8049 36.6666H30.073C31.5994 36.6706 33.0645 36.0714 34.1452 35.0013C35.2259 33.9313 35.8333 32.4783 35.8333 30.963V16.4448C35.8333 15.2208 35.2867 14.0597 34.341 13.2744L23.2233 4.45978C21.2894 2.91427 18.5185 2.96417 16.6423 4.5783L5.77831 13.2744C4.78786 14.0366 4.19588 15.2011 4.16663 16.4448V30.9482C4.16663 34.1064 6.7456 36.6666 9.92691 36.6666H13.1204C14.252 36.6667 15.1716 35.7604 15.1798 34.6371L15.2246 34.6222Z" fill="white"/>
</svg>
